<mxfile host="app.diagrams.net" modified="2021-06-14T16:59:16.055Z" agent="5.0 (Windows NT 10.0; Win64; x64) AppleWebKit/537.36 (KHTML, like Gecko) Chrome/91.0.4472.101 Safari/537.36 Edg/91.0.864.48" etag="r_Ar6De4Lauppxpp24oo" version="14.7.7" type="github">
  <diagram name="Page-1" id="6133507b-19e7-1e82-6fc7-422aa6c4b21f">
    <mxGraphModel dx="981" dy="526" grid="1" gridSize="10" guides="1" tooltips="1" connect="1" arrows="1" fold="1" page="1" pageScale="1" pageWidth="1100" pageHeight="850" background="none" math="0" shadow="0">
      <root>
        <mxCell id="0" />
        <mxCell id="1" parent="0" />
        <mxCell id="78961159f06e98e8-17" value="class&amp;nbsp;EngineManaged" style="swimlane;html=1;fontStyle=1;align=center;verticalAlign=top;childLayout=stackLayout;horizontal=1;startSize=26;horizontalStack=0;resizeParent=1;resizeLast=0;collapsible=1;marginBottom=0;swimlaneFillColor=#ffffff;rounded=0;shadow=0;comic=0;labelBackgroundColor=none;strokeWidth=1;fillColor=none;fontFamily=Verdana;fontSize=12;swimlaneLine=1;" parent="1" vertex="1">
          <mxGeometry x="420" y="89" width="210" height="101" as="geometry" />
        </mxCell>
        <mxCell id="78961159f06e98e8-23" value="EngineManaged&lt;span style=&quot;white-space: pre&quot;&gt;	&lt;/span&gt;_instance" style="text;html=1;strokeColor=none;fillColor=none;align=left;verticalAlign=top;spacingLeft=4;spacingRight=4;whiteSpace=wrap;overflow=hidden;rotatable=0;points=[[0,0.5],[1,0.5]];portConstraint=eastwest;" parent="78961159f06e98e8-17" vertex="1">
          <mxGeometry y="26" width="210" height="26" as="geometry" />
        </mxCell>
        <mxCell id="78961159f06e98e8-19" value="" style="line;html=1;strokeWidth=1;fillColor=none;align=left;verticalAlign=middle;spacingTop=-1;spacingLeft=3;spacingRight=3;rotatable=0;labelPosition=right;points=[];portConstraint=eastwest;" parent="78961159f06e98e8-17" vertex="1">
          <mxGeometry y="52" width="210" height="8" as="geometry" />
        </mxCell>
        <mxCell id="yH2N4LVDHTNYknIPU6K9-6" value="void&amp;nbsp;OnInitialize()" style="text;html=1;strokeColor=none;fillColor=none;align=left;verticalAlign=top;spacingLeft=4;spacingRight=4;whiteSpace=wrap;overflow=hidden;rotatable=0;points=[[0,0.5],[1,0.5]];portConstraint=eastwest;" vertex="1" parent="78961159f06e98e8-17">
          <mxGeometry y="60" width="210" height="26" as="geometry" />
        </mxCell>
        <mxCell id="yH2N4LVDHTNYknIPU6K9-8" value="class&amp;nbsp;EngineInputManager" style="swimlane;html=1;fontStyle=1;align=center;verticalAlign=top;childLayout=stackLayout;horizontal=1;startSize=26;horizontalStack=0;resizeParent=1;resizeLast=0;collapsible=1;marginBottom=0;swimlaneFillColor=#ffffff;rounded=0;shadow=0;comic=0;labelBackgroundColor=none;strokeWidth=1;fillColor=none;fontFamily=Verdana;fontSize=12;swimlaneLine=1;" vertex="1" parent="1">
          <mxGeometry x="760" y="99.5" width="210" height="80" as="geometry" />
        </mxCell>
        <mxCell id="yH2N4LVDHTNYknIPU6K9-11" value="" style="line;html=1;strokeWidth=1;fillColor=none;align=left;verticalAlign=middle;spacingTop=-1;spacingLeft=3;spacingRight=3;rotatable=0;labelPosition=right;points=[];portConstraint=eastwest;" vertex="1" parent="yH2N4LVDHTNYknIPU6K9-8">
          <mxGeometry y="26" width="210" height="8" as="geometry" />
        </mxCell>
        <mxCell id="yH2N4LVDHTNYknIPU6K9-12" value="bool&amp;nbsp;IsMouseActive()" style="text;html=1;strokeColor=none;fillColor=none;align=left;verticalAlign=top;spacingLeft=4;spacingRight=4;whiteSpace=wrap;overflow=hidden;rotatable=0;points=[[0,0.5],[1,0.5]];portConstraint=eastwest;" vertex="1" parent="yH2N4LVDHTNYknIPU6K9-8">
          <mxGeometry y="34" width="210" height="26" as="geometry" />
        </mxCell>
        <mxCell id="yH2N4LVDHTNYknIPU6K9-19" value="static class Input" style="swimlane;html=1;fontStyle=1;align=center;verticalAlign=top;childLayout=stackLayout;horizontal=1;startSize=26;horizontalStack=0;resizeParent=1;resizeLast=0;collapsible=1;marginBottom=0;swimlaneFillColor=#ffffff;rounded=0;shadow=0;comic=0;labelBackgroundColor=none;strokeWidth=1;fillColor=none;fontFamily=Verdana;fontSize=12;swimlaneLine=1;" vertex="1" parent="1">
          <mxGeometry x="430" y="390" width="190" height="100" as="geometry" />
        </mxCell>
        <mxCell id="yH2N4LVDHTNYknIPU6K9-54" style="edgeStyle=orthogonalEdgeStyle;rounded=0;orthogonalLoop=1;jettySize=auto;html=1;" edge="1" parent="yH2N4LVDHTNYknIPU6K9-19" source="yH2N4LVDHTNYknIPU6K9-21" target="yH2N4LVDHTNYknIPU6K9-36">
          <mxGeometry relative="1" as="geometry">
            <Array as="points">
              <mxPoint x="260" y="50" />
              <mxPoint x="260" y="75" />
            </Array>
          </mxGeometry>
        </mxCell>
        <mxCell id="yH2N4LVDHTNYknIPU6K9-57" value="IsMouseActive()" style="edgeLabel;html=1;align=center;verticalAlign=middle;resizable=0;points=[];" vertex="1" connectable="0" parent="yH2N4LVDHTNYknIPU6K9-54">
          <mxGeometry x="0.0977" relative="1" as="geometry">
            <mxPoint as="offset" />
          </mxGeometry>
        </mxCell>
        <mxCell id="yH2N4LVDHTNYknIPU6K9-21" value="IInputManager&lt;span style=&quot;white-space: pre&quot;&gt;	&lt;/span&gt;_inputManager" style="text;html=1;strokeColor=none;fillColor=none;align=left;verticalAlign=top;spacingLeft=4;spacingRight=4;whiteSpace=wrap;overflow=hidden;rotatable=0;points=[[0,0.5],[1,0.5]];portConstraint=eastwest;" vertex="1" parent="yH2N4LVDHTNYknIPU6K9-19">
          <mxGeometry y="26" width="190" height="26" as="geometry" />
        </mxCell>
        <mxCell id="yH2N4LVDHTNYknIPU6K9-22" value="" style="line;html=1;strokeWidth=1;fillColor=none;align=left;verticalAlign=middle;spacingTop=-1;spacingLeft=3;spacingRight=3;rotatable=0;labelPosition=right;points=[];portConstraint=eastwest;" vertex="1" parent="yH2N4LVDHTNYknIPU6K9-19">
          <mxGeometry y="52" width="190" height="8" as="geometry" />
        </mxCell>
        <mxCell id="yH2N4LVDHTNYknIPU6K9-36" value="bool&amp;nbsp;IsMouseActive()" style="text;html=1;strokeColor=none;fillColor=none;align=left;verticalAlign=top;spacingLeft=4;spacingRight=4;whiteSpace=wrap;overflow=hidden;rotatable=0;points=[[0,0.5],[1,0.5]];portConstraint=eastwest;" vertex="1" parent="yH2N4LVDHTNYknIPU6K9-19">
          <mxGeometry y="60" width="190" height="30" as="geometry" />
        </mxCell>
        <mxCell id="yH2N4LVDHTNYknIPU6K9-31" value="Input.GetIsMouseActive" style="text;strokeColor=none;fillColor=none;align=left;verticalAlign=top;spacingLeft=4;spacingRight=4;overflow=hidden;rotatable=0;points=[[0,0.5],[1,0.5]];portConstraint=eastwest;shadow=0;" vertex="1" parent="1">
          <mxGeometry x="430" y="1200" width="250" height="26" as="geometry" />
        </mxCell>
        <mxCell id="yH2N4LVDHTNYknIPU6K9-32" value="class InputContext" style="swimlane;html=1;fontStyle=1;align=center;verticalAlign=top;childLayout=stackLayout;horizontal=1;startSize=26;horizontalStack=0;resizeParent=1;resizeLast=0;collapsible=1;marginBottom=0;swimlaneFillColor=#ffffff;rounded=0;shadow=0;comic=0;labelBackgroundColor=none;strokeWidth=1;fillColor=none;fontFamily=Verdana;fontSize=12;swimlaneLine=1;" vertex="1" parent="1">
          <mxGeometry x="430" y="670" width="190" height="100" as="geometry" />
        </mxCell>
        <mxCell id="yH2N4LVDHTNYknIPU6K9-33" value="IInputManager&lt;span style=&quot;white-space: pre&quot;&gt;	&lt;/span&gt;_inputManager" style="text;html=1;strokeColor=none;fillColor=none;align=left;verticalAlign=top;spacingLeft=4;spacingRight=4;whiteSpace=wrap;overflow=hidden;rotatable=0;points=[[0,0.5],[1,0.5]];portConstraint=eastwest;" vertex="1" parent="yH2N4LVDHTNYknIPU6K9-32">
          <mxGeometry y="26" width="190" height="26" as="geometry" />
        </mxCell>
        <mxCell id="yH2N4LVDHTNYknIPU6K9-34" value="" style="line;html=1;strokeWidth=1;fillColor=none;align=left;verticalAlign=middle;spacingTop=-1;spacingLeft=3;spacingRight=3;rotatable=0;labelPosition=right;points=[];portConstraint=eastwest;" vertex="1" parent="yH2N4LVDHTNYknIPU6K9-32">
          <mxGeometry y="52" width="190" height="8" as="geometry" />
        </mxCell>
        <mxCell id="yH2N4LVDHTNYknIPU6K9-35" value="bool&amp;nbsp;GetIsMouseActive()" style="text;html=1;strokeColor=none;fillColor=none;align=left;verticalAlign=top;spacingLeft=4;spacingRight=4;whiteSpace=wrap;overflow=hidden;rotatable=0;points=[[0,0.5],[1,0.5]];portConstraint=eastwest;" vertex="1" parent="yH2N4LVDHTNYknIPU6K9-32">
          <mxGeometry y="60" width="190" height="30" as="geometry" />
        </mxCell>
        <mxCell id="yH2N4LVDHTNYknIPU6K9-37" style="edgeStyle=orthogonalEdgeStyle;rounded=0;orthogonalLoop=1;jettySize=auto;html=1;" edge="1" parent="1" source="yH2N4LVDHTNYknIPU6K9-36" target="yH2N4LVDHTNYknIPU6K9-35">
          <mxGeometry relative="1" as="geometry" />
        </mxCell>
        <mxCell id="yH2N4LVDHTNYknIPU6K9-50" style="edgeStyle=orthogonalEdgeStyle;rounded=0;orthogonalLoop=1;jettySize=auto;html=1;" edge="1" parent="1" source="yH2N4LVDHTNYknIPU6K9-6" target="yH2N4LVDHTNYknIPU6K9-21">
          <mxGeometry relative="1" as="geometry">
            <mxPoint x="200" y="410" as="targetPoint" />
          </mxGeometry>
        </mxCell>
        <mxCell id="yH2N4LVDHTNYknIPU6K9-58" value="(IInputManager) new EngineInputManager()" style="edgeLabel;html=1;align=center;verticalAlign=middle;resizable=0;points=[];rotation=0;" vertex="1" connectable="0" parent="yH2N4LVDHTNYknIPU6K9-50">
          <mxGeometry x="0.6343" y="-2" relative="1" as="geometry">
            <mxPoint as="offset" />
          </mxGeometry>
        </mxCell>
      </root>
    </mxGraphModel>
  </diagram>
</mxfile>
